<svg xmlns="http://www.w3.org/2000/svg" viewBox="0 0 1134.7 300" role="img" aria-label="Spazio Sicuro">
  <title>Spazio Sicuro</title>
  <g>
    <path d="M169.93,55.52 L168.08,55.34" stroke="#4c5fd9" stroke-width="17" stroke-linecap="round" fill="none"/>
    <path d="M168.08,55.34 L166.22,55.20" stroke="#4d5fd9" stroke-width="17" stroke-linecap="round" fill="none"/>
    <path d="M166.22,55.20 L164.36,55.10" stroke="#4e60d8" stroke-width="17" stroke-linecap="round" fill="none"/>
    <path d="M164.36,55.10 L162.50,55.03" stroke="#4e60d8" stroke-width="17" stroke-linecap="round" fill="none"/>
    <path d="M162.50,55.03 L160.64,55.00" stroke="#4f60d8" stroke-width="17" stroke-linecap="round" fill="none"/>
    <path d="M160.64,55.00 L158.78,55.01" stroke="#5061d7" stroke-width="17" stroke-linecap="round" fill="none"/>
    <path d="M158.78,55.01 L156.91,55.05" stroke="#5061d7" stroke-width="17" stroke-linecap="round" fill="none"/>
    <path d="M156.91,55.05 L155.05,55.13" stroke="#5161d7" stroke-width="17" stroke-linecap="round" fill="none"/>
    <path d="M155.05,55.13 L153.20,55.24" stroke="#5262d6" stroke-width="17" stroke-linecap="round" fill="none"/>
    <path d="M153.20,55.24 L151.34,55.40" stroke="#5262d6" stroke-width="17" stroke-linecap="round" fill="none"/>
    <path d="M151.34,55.40 L149.49,55.58" stroke="#5362d6" stroke-width="17" stroke-linecap="round" fill="none"/>
    <path d="M149.49,55.58 L147.64,55.81" stroke="#5363d6" stroke-width="17" stroke-linecap="round" fill="none"/>
    <path d="M147.64,55.81 L145.79,56.07" stroke="#5463d5" stroke-width="17" stroke-linecap="round" fill="none"/>
    <path d="M145.79,56.07 L143.96,56.36" stroke="#5563d5" stroke-width="17" stroke-linecap="round" fill="none"/>
    <path d="M143.96,56.36 L142.12,56.70" stroke="#5564d5" stroke-width="17" stroke-linecap="round" fill="none"/>
    <path d="M142.12,56.70 L140.30,57.07" stroke="#5664d4" stroke-width="17" stroke-linecap="round" fill="none"/>
    <path d="M140.30,57.07 L138.48,57.47" stroke="#5764d4" stroke-width="17" stroke-linecap="round" fill="none"/>
    <path d="M138.48,57.47 L136.67,57.91" stroke="#5764d4" stroke-width="17" stroke-linecap="round" fill="none"/>
    <path d="M136.67,57.91 L134.87,58.38" stroke="#5865d3" stroke-width="17" stroke-linecap="round" fill="none"/>
    <path d="M134.87,58.38 L133.08,58.89" stroke="#5965d3" stroke-width="17" stroke-linecap="round" fill="none"/>
    <path d="M133.08,58.89 L131.30,59.44" stroke="#5965d3" stroke-width="17" stroke-linecap="round" fill="none"/>
    <path d="M131.30,59.44 L129.53,60.02" stroke="#5a66d3" stroke-width="17" stroke-linecap="round" fill="none"/>
    <path d="M129.53,60.02 L127.77,60.63" stroke="#5b66d2" stroke-width="17" stroke-linecap="round" fill="none"/>
    <path d="M127.77,60.63 L126.03,61.28" stroke="#5b66d2" stroke-width="17" stroke-linecap="round" fill="none"/>
    <path d="M126.03,61.28 L124.29,61.97" stroke="#5c67d2" stroke-width="17" stroke-linecap="round" fill="none"/>
    <path d="M124.29,61.97 L122.58,62.68" stroke="#5d67d1" stroke-width="17" stroke-linecap="round" fill="none"/>
    <path d="M122.58,62.68 L120.87,63.43" stroke="#5d67d1" stroke-width="17" stroke-linecap="round" fill="none"/>
    <path d="M120.87,63.43 L119.18,64.22" stroke="#5e68d1" stroke-width="17" stroke-linecap="round" fill="none"/>
    <path d="M119.18,64.22 L117.51,65.03" stroke="#5f68d0" stroke-width="17" stroke-linecap="round" fill="none"/>
    <path d="M117.51,65.03 L115.85,65.88" stroke="#5f68d0" stroke-width="17" stroke-linecap="round" fill="none"/>
    <path d="M115.85,65.88 L114.21,66.76" stroke="#6069d0" stroke-width="17" stroke-linecap="round" fill="none"/>
    <path d="M114.21,66.76 L112.59,67.68" stroke="#6069d0" stroke-width="17" stroke-linecap="round" fill="none"/>
    <path d="M112.59,67.68 L110.98,68.62" stroke="#6169cf" stroke-width="17" stroke-linecap="round" fill="none"/>
    <path d="M110.98,68.62 L109.40,69.60" stroke="#6269cf" stroke-width="17" stroke-linecap="round" fill="none"/>
    <path d="M109.40,69.60 L107.83,70.61" stroke="#626acf" stroke-width="17" stroke-linecap="round" fill="none"/>
    <path d="M107.83,70.61 L106.29,71.64" stroke="#636ace" stroke-width="17" stroke-linecap="round" fill="none"/>
    <path d="M106.29,71.64 L104.76,72.71" stroke="#646ace" stroke-width="17" stroke-linecap="round" fill="none"/>
    <path d="M104.76,72.71 L103.26,73.81" stroke="#646bce" stroke-width="17" stroke-linecap="round" fill="none"/>
    <path d="M103.26,73.81 L101.77,74.94" stroke="#656bcd" stroke-width="17" stroke-linecap="round" fill="none"/>
    <path d="M101.77,74.94 L100.31,76.09" stroke="#666bcd" stroke-width="17" stroke-linecap="round" fill="none"/>
    <path d="M100.31,76.09 L98.88,77.27" stroke="#666ccd" stroke-width="17" stroke-linecap="round" fill="none"/>
    <path d="M98.88,77.27 L97.46,78.49" stroke="#676ccd" stroke-width="17" stroke-linecap="round" fill="none"/>
    <path d="M97.46,78.49 L96.07,79.73" stroke="#686ccc" stroke-width="17" stroke-linecap="round" fill="none"/>
    <path d="M96.07,79.73 L94.71,80.99" stroke="#686dcc" stroke-width="17" stroke-linecap="round" fill="none"/>
    <path d="M94.71,80.99 L93.37,82.29" stroke="#696dcc" stroke-width="17" stroke-linecap="round" fill="none"/>
    <path d="M93.37,82.29 L92.05,83.60" stroke="#6a6dcb" stroke-width="17" stroke-linecap="round" fill="none"/>
    <path d="M92.05,83.60 L90.77,84.95" stroke="#6a6dcb" stroke-width="17" stroke-linecap="round" fill="none"/>
    <path d="M90.77,84.95 L89.50,86.32" stroke="#6b6ecb" stroke-width="17" stroke-linecap="round" fill="none"/>
    <path d="M89.50,86.32 L88.27,87.71" stroke="#6c6eca" stroke-width="17" stroke-linecap="round" fill="none"/>
    <path d="M88.27,87.71 L87.06,89.13" stroke="#6c6eca" stroke-width="17" stroke-linecap="round" fill="none"/>
    <path d="M87.06,89.13 L85.88,90.57" stroke="#6d6fca" stroke-width="17" stroke-linecap="round" fill="none"/>
    <path d="M85.88,90.57 L84.73,92.04" stroke="#6d6fca" stroke-width="17" stroke-linecap="round" fill="none"/>
    <path d="M84.73,92.04 L83.61,93.52" stroke="#6e6fc9" stroke-width="17" stroke-linecap="round" fill="none"/>
    <path d="M83.61,93.52 L82.52,95.03" stroke="#6f70c9" stroke-width="17" stroke-linecap="round" fill="none"/>
    <path d="M82.52,95.03 L81.46,96.56" stroke="#6f70c9" stroke-width="17" stroke-linecap="round" fill="none"/>
    <path d="M81.46,96.56 L80.42,98.11" stroke="#7070c8" stroke-width="17" stroke-linecap="round" fill="none"/>
    <path d="M80.42,98.11 L79.42,99.68" stroke="#7171c8" stroke-width="17" stroke-linecap="round" fill="none"/>
    <path d="M79.42,99.68 L78.45,101.27" stroke="#7171c8" stroke-width="17" stroke-linecap="round" fill="none"/>
    <path d="M78.45,101.27 L77.51,102.88" stroke="#7271c7" stroke-width="17" stroke-linecap="round" fill="none"/>
    <path d="M77.51,102.88 L76.60,104.50" stroke="#7372c7" stroke-width="17" stroke-linecap="round" fill="none"/>
    <path d="M76.60,104.50 L75.73,106.15" stroke="#7372c7" stroke-width="17" stroke-linecap="round" fill="none"/>
    <path d="M75.73,106.15 L74.88,107.81" stroke="#7472c7" stroke-width="17" stroke-linecap="round" fill="none"/>
    <path d="M74.88,107.81 L74.07,109.48" stroke="#7572c6" stroke-width="17" stroke-linecap="round" fill="none"/>
    <path d="M74.07,109.48 L73.30,111.17" stroke="#7573c6" stroke-width="17" stroke-linecap="round" fill="none"/>
    <path d="M73.30,111.17 L72.55,112.88" stroke="#7673c6" stroke-width="17" stroke-linecap="round" fill="none"/>
    <path d="M72.55,112.88 L71.84,114.60" stroke="#7773c5" stroke-width="17" stroke-linecap="round" fill="none"/>
    <path d="M71.84,114.60 L71.16,116.34" stroke="#7774c5" stroke-width="17" stroke-linecap="round" fill="none"/>
    <path d="M71.16,116.34 L70.52,118.08" stroke="#7874c5" stroke-width="17" stroke-linecap="round" fill="none"/>
    <path d="M70.52,118.08 L69.91,119.84" stroke="#7974c4" stroke-width="17" stroke-linecap="round" fill="none"/>
    <path d="M69.91,119.84 L69.34,121.62" stroke="#7975c4" stroke-width="17" stroke-linecap="round" fill="none"/>
    <path d="M69.34,121.62 L68.80,123.40" stroke="#7a75c4" stroke-width="17" stroke-linecap="round" fill="none"/>
    <path d="M68.80,123.40 L68.30,125.19" stroke="#7a75c4" stroke-width="17" stroke-linecap="round" fill="none"/>
    <path d="M68.30,125.19 L67.83,126.99" stroke="#7b76c3" stroke-width="17" stroke-linecap="round" fill="none"/>
    <path d="M67.83,126.99 L67.39,128.80" stroke="#7c76c3" stroke-width="17" stroke-linecap="round" fill="none"/>
    <path d="M67.39,128.80 L67.00,130.62" stroke="#7c76c3" stroke-width="17" stroke-linecap="round" fill="none"/>
    <path d="M67.00,130.62 L66.64,132.45" stroke="#7d77c2" stroke-width="17" stroke-linecap="round" fill="none"/>
    <path d="M66.64,132.45 L66.31,134.28" stroke="#7e77c2" stroke-width="17" stroke-linecap="round" fill="none"/>
    <path d="M66.31,134.28 L66.02,136.12" stroke="#7e77c2" stroke-width="17" stroke-linecap="round" fill="none"/>
    <path d="M66.02,136.12 L65.77,137.97" stroke="#7f77c1" stroke-width="17" stroke-linecap="round" fill="none"/>
    <path d="M65.77,137.97 L65.55,139.82" stroke="#8078c1" stroke-width="17" stroke-linecap="round" fill="none"/>
    <path d="M65.55,139.82 L65.37,141.67" stroke="#8078c1" stroke-width="17" stroke-linecap="round" fill="none"/>
    <path d="M65.37,141.67 L65.22,143.53" stroke="#8178c1" stroke-width="17" stroke-linecap="round" fill="none"/>
    <path d="M65.22,143.53 L65.11,145.38" stroke="#8279c0" stroke-width="17" stroke-linecap="round" fill="none"/>
    <path d="M65.11,145.38 L65.04,147.25" stroke="#8279c0" stroke-width="17" stroke-linecap="round" fill="none"/>
    <path d="M65.04,147.25 L65.00,149.11" stroke="#8379c0" stroke-width="17" stroke-linecap="round" fill="none"/>
    <path d="M65.00,149.11 L65.00,150.97" stroke="#847abf" stroke-width="17" stroke-linecap="round" fill="none"/>
    <path d="M65.00,150.97 L65.04,152.83" stroke="#847abf" stroke-width="17" stroke-linecap="round" fill="none"/>
    <path d="M65.04,152.83 L65.12,154.69" stroke="#857abf" stroke-width="17" stroke-linecap="round" fill="none"/>
    <path d="M65.12,154.69 L65.23,156.55" stroke="#867bbe" stroke-width="17" stroke-linecap="round" fill="none"/>
    <path d="M65.23,156.55 L65.37,158.41" stroke="#867bbe" stroke-width="17" stroke-linecap="round" fill="none"/>
    <path d="M65.37,158.41 L65.56,160.26" stroke="#877bbe" stroke-width="17" stroke-linecap="round" fill="none"/>
    <path d="M65.56,160.26 L65.77,162.11" stroke="#877cbe" stroke-width="17" stroke-linecap="round" fill="none"/>
    <path d="M65.77,162.11 L66.03,163.95" stroke="#887cbd" stroke-width="17" stroke-linecap="round" fill="none"/>
    <path d="M66.03,163.95 L66.32,165.79" stroke="#897cbd" stroke-width="17" stroke-linecap="round" fill="none"/>
    <path d="M66.32,165.79 L66.65,167.63" stroke="#897cbd" stroke-width="17" stroke-linecap="round" fill="none"/>
    <path d="M66.65,167.63 L67.01,169.45" stroke="#8a7dbc" stroke-width="17" stroke-linecap="round" fill="none"/>
    <path d="M67.01,169.45 L67.41,171.27" stroke="#8b7dbc" stroke-width="17" stroke-linecap="round" fill="none"/>
    <path d="M67.41,171.27 L67.85,173.08" stroke="#8b7dbc" stroke-width="17" stroke-linecap="round" fill="none"/>
    <path d="M67.85,173.08 L68.32,174.88" stroke="#8c7ebb" stroke-width="17" stroke-linecap="round" fill="none"/>
    <path d="M68.32,174.88 L68.82,176.68" stroke="#8d7ebb" stroke-width="17" stroke-linecap="round" fill="none"/>
    <path d="M68.82,176.68 L69.36,178.46" stroke="#8d7ebb" stroke-width="17" stroke-linecap="round" fill="none"/>
    <path d="M69.36,178.46 L69.94,180.23" stroke="#8e7fbb" stroke-width="17" stroke-linecap="round" fill="none"/>
    <path d="M69.94,180.23 L70.55,181.99" stroke="#8f7fba" stroke-width="17" stroke-linecap="round" fill="none"/>
    <path d="M70.55,181.99 L71.19,183.74" stroke="#8f7fba" stroke-width="17" stroke-linecap="round" fill="none"/>
    <path d="M71.19,183.74 L71.87,185.47" stroke="#9080ba" stroke-width="17" stroke-linecap="round" fill="none"/>
    <path d="M71.87,185.47 L72.58,187.19" stroke="#9180b9" stroke-width="17" stroke-linecap="round" fill="none"/>
    <path d="M72.58,187.19 L73.33,188.90" stroke="#9180b9" stroke-width="17" stroke-linecap="round" fill="none"/>
    <path d="M73.33,188.90 L74.11,190.59" stroke="#9280b9" stroke-width="17" stroke-linecap="round" fill="none"/>
    <path d="M74.11,190.59 L74.92,192.26" stroke="#9381b8" stroke-width="17" stroke-linecap="round" fill="none"/>
    <path d="M74.92,192.26 L75.76,193.92" stroke="#9381b8" stroke-width="17" stroke-linecap="round" fill="none"/>
    <path d="M75.76,193.92 L76.64,195.57" stroke="#9481b8" stroke-width="17" stroke-linecap="round" fill="none"/>
    <path d="M76.64,195.57 L77.55,197.19" stroke="#9482b8" stroke-width="17" stroke-linecap="round" fill="none"/>
    <path d="M77.55,197.19 L78.49,198.80" stroke="#9582b7" stroke-width="17" stroke-linecap="round" fill="none"/>
    <path d="M78.49,198.80 L79.46,200.39" stroke="#9682b7" stroke-width="17" stroke-linecap="round" fill="none"/>
    <path d="M79.46,200.39 L80.47,201.95" stroke="#9683b7" stroke-width="17" stroke-linecap="round" fill="none"/>
    <path d="M80.47,201.95 L81.50,203.50" stroke="#9783b6" stroke-width="17" stroke-linecap="round" fill="none"/>
    <path d="M81.50,203.50 L82.56,205.03" stroke="#9883b6" stroke-width="17" stroke-linecap="round" fill="none"/>
    <path d="M82.56,205.03 L83.66,206.54" stroke="#9884b6" stroke-width="17" stroke-linecap="round" fill="none"/>
    <path d="M83.66,206.54 L84.78,208.02" stroke="#9984b5" stroke-width="17" stroke-linecap="round" fill="none"/>
    <path d="M84.78,208.02 L85.93,209.49" stroke="#9a84b5" stroke-width="17" stroke-linecap="round" fill="none"/>
    <path d="M85.93,209.49 L87.11,210.93" stroke="#9a85b5" stroke-width="17" stroke-linecap="round" fill="none"/>
    <path d="M87.11,210.93 L88.32,212.34" stroke="#9b85b5" stroke-width="17" stroke-linecap="round" fill="none"/>
    <path d="M88.32,212.34 L89.56,213.74" stroke="#9c85b4" stroke-width="17" stroke-linecap="round" fill="none"/>
    <path d="M89.56,213.74 L90.82,215.11" stroke="#9c85b4" stroke-width="17" stroke-linecap="round" fill="none"/>
    <path d="M90.82,215.11 L92.11,216.45" stroke="#9d86b4" stroke-width="17" stroke-linecap="round" fill="none"/>
    <path d="M92.11,216.45 L93.42,217.77" stroke="#9e86b3" stroke-width="17" stroke-linecap="round" fill="none"/>
    <path d="M93.42,217.77 L94.76,219.06" stroke="#9e86b3" stroke-width="17" stroke-linecap="round" fill="none"/>
    <path d="M94.76,219.06 L96.13,220.33" stroke="#9f87b3" stroke-width="17" stroke-linecap="round" fill="none"/>
    <path d="M96.13,220.33 L97.52,221.56" stroke="#a087b2" stroke-width="17" stroke-linecap="round" fill="none"/>
    <path d="M97.52,221.56 L98.94,222.77" stroke="#a087b2" stroke-width="17" stroke-linecap="round" fill="none"/>
    <path d="M98.94,222.77 L100.37,223.96" stroke="#a188b2" stroke-width="17" stroke-linecap="round" fill="none"/>
    <path d="M100.37,223.96 L101.83,225.11" stroke="#a188b2" stroke-width="17" stroke-linecap="round" fill="none"/>
    <path d="M101.83,225.11 L103.32,226.24" stroke="#a288b1" stroke-width="17" stroke-linecap="round" fill="none"/>
    <path d="M103.32,226.24 L104.82,227.33" stroke="#a389b1" stroke-width="17" stroke-linecap="round" fill="none"/>
    <path d="M104.82,227.33 L106.35,228.40" stroke="#a389b1" stroke-width="17" stroke-linecap="round" fill="none"/>
    <path d="M106.35,228.40 L107.90,229.44" stroke="#a489b0" stroke-width="17" stroke-linecap="round" fill="none"/>
    <path d="M107.90,229.44 L109.46,230.44" stroke="#a58ab0" stroke-width="17" stroke-linecap="round" fill="none"/>
    <path d="M109.46,230.44 L111.05,231.42" stroke="#a58ab0" stroke-width="17" stroke-linecap="round" fill="none"/>
    <path d="M111.05,231.42 L112.65,232.36" stroke="#a68aaf" stroke-width="17" stroke-linecap="round" fill="none"/>
    <path d="M112.65,232.36 L114.28,233.27" stroke="#a78aaf" stroke-width="17" stroke-linecap="round" fill="none"/>
    <path d="M114.28,233.27 L115.92,234.15" stroke="#a78baf" stroke-width="17" stroke-linecap="round" fill="none"/>
    <path d="M115.92,234.15 L117.58,235.00" stroke="#a88baf" stroke-width="17" stroke-linecap="round" fill="none"/>
    <path d="M117.58,235.00 L119.25,235.82" stroke="#a98bae" stroke-width="17" stroke-linecap="round" fill="none"/>
    <path d="M119.25,235.82 L120.94,236.60" stroke="#a98cae" stroke-width="17" stroke-linecap="round" fill="none"/>
    <path d="M120.94,236.60 L122.65,237.35" stroke="#aa8cae" stroke-width="17" stroke-linecap="round" fill="none"/>
    <path d="M122.65,237.35 L124.37,238.06" stroke="#ab8cad" stroke-width="17" stroke-linecap="round" fill="none"/>
    <path d="M124.37,238.06 L126.10,238.74" stroke="#ab8dad" stroke-width="17" stroke-linecap="round" fill="none"/>
    <path d="M126.10,238.74 L127.84,239.39" stroke="#ac8dad" stroke-width="17" stroke-linecap="round" fill="none"/>
    <path d="M127.84,239.39 L129.60,240.01" stroke="#ad8dac" stroke-width="17" stroke-linecap="round" fill="none"/>
    <path d="M129.60,240.01 L131.37,240.58" stroke="#ad8eac" stroke-width="17" stroke-linecap="round" fill="none"/>
    <path d="M131.37,240.58 L133.15,241.13" stroke="#ae8eac" stroke-width="17" stroke-linecap="round" fill="none"/>
    <path d="M133.15,241.13 L134.94,241.64" stroke="#ae8eac" stroke-width="17" stroke-linecap="round" fill="none"/>
    <path d="M134.94,241.64 L136.75,242.11" stroke="#af8fab" stroke-width="17" stroke-linecap="round" fill="none"/>
    <path d="M136.75,242.11 L138.56,242.55" stroke="#b08fab" stroke-width="17" stroke-linecap="round" fill="none"/>
    <path d="M138.56,242.55 L140.37,242.95" stroke="#b08fab" stroke-width="17" stroke-linecap="round" fill="none"/>
    <path d="M140.37,242.95 L142.20,243.32" stroke="#b18faa" stroke-width="17" stroke-linecap="round" fill="none"/>
    <path d="M142.20,243.32 L144.03,243.65" stroke="#b290aa" stroke-width="17" stroke-linecap="round" fill="none"/>
    <path d="M144.03,243.65 L145.87,243.94" stroke="#b290aa" stroke-width="17" stroke-linecap="round" fill="none"/>
    <path d="M145.87,243.94 L147.71,244.20" stroke="#b390a9" stroke-width="17" stroke-linecap="round" fill="none"/>
    <path d="M147.71,244.20 L149.56,244.42" stroke="#b491a9" stroke-width="17" stroke-linecap="round" fill="none"/>
    <path d="M149.56,244.42 L151.42,244.61" stroke="#b491a9" stroke-width="17" stroke-linecap="round" fill="none"/>
    <path d="M151.42,244.61 L153.27,244.76" stroke="#b591a9" stroke-width="17" stroke-linecap="round" fill="none"/>
    <path d="M153.27,244.76 L155.13,244.88" stroke="#b692a8" stroke-width="17" stroke-linecap="round" fill="none"/>
    <path d="M155.13,244.88 L156.99,244.95" stroke="#b692a8" stroke-width="17" stroke-linecap="round" fill="none"/>
    <path d="M156.99,244.95 L158.85,244.99" stroke="#b792a8" stroke-width="17" stroke-linecap="round" fill="none"/>
    <path d="M158.85,244.99 L160.71,245.00" stroke="#b893a7" stroke-width="17" stroke-linecap="round" fill="none"/>
    <path d="M160.71,245.00 L162.58,244.97" stroke="#b893a7" stroke-width="17" stroke-linecap="round" fill="none"/>
    <path d="M162.58,244.97 L164.44,244.90" stroke="#b993a7" stroke-width="17" stroke-linecap="round" fill="none"/>
    <path d="M164.44,244.90 L166.30,244.79" stroke="#ba93a6" stroke-width="17" stroke-linecap="round" fill="none"/>
    <path d="M166.30,244.79 L168.15,244.65" stroke="#ba94a6" stroke-width="17" stroke-linecap="round" fill="none"/>
    <path d="M168.15,244.65 L170.01,244.47" stroke="#bb94a6" stroke-width="17" stroke-linecap="round" fill="none"/>
    <path d="M170.01,244.47 L171.86,244.26" stroke="#bb94a6" stroke-width="17" stroke-linecap="round" fill="none"/>
    <path d="M171.86,244.26 L173.70,244.01" stroke="#bc95a5" stroke-width="17" stroke-linecap="round" fill="none"/>
    <path d="M173.70,244.01 L175.54,243.72" stroke="#bd95a5" stroke-width="17" stroke-linecap="round" fill="none"/>
    <path d="M175.54,243.72 L177.38,243.40" stroke="#bd95a5" stroke-width="17" stroke-linecap="round" fill="none"/>
    <path d="M177.38,243.40 L179.20,243.04" stroke="#be96a4" stroke-width="17" stroke-linecap="round" fill="none"/>
    <path d="M179.20,243.04 L181.02,242.64" stroke="#bf96a4" stroke-width="17" stroke-linecap="round" fill="none"/>
    <path d="M181.02,242.64 L182.83,242.22" stroke="#bf96a4" stroke-width="17" stroke-linecap="round" fill="none"/>
    <path d="M182.83,242.22 L184.64,241.75" stroke="#c097a3" stroke-width="17" stroke-linecap="round" fill="none"/>
    <path d="M184.64,241.75 L186.43,241.25" stroke="#c197a3" stroke-width="17" stroke-linecap="round" fill="none"/>
    <path d="M186.43,241.25 L188.21,240.71" stroke="#c197a3" stroke-width="17" stroke-linecap="round" fill="none"/>
    <path d="M188.21,240.71 L189.99,240.14" stroke="#c298a3" stroke-width="17" stroke-linecap="round" fill="none"/>
    <path d="M189.99,240.14 L191.75,239.54" stroke="#c398a2" stroke-width="17" stroke-linecap="round" fill="none"/>
    <path d="M191.75,239.54 L193.50,238.90" stroke="#c398a2" stroke-width="17" stroke-linecap="round" fill="none"/>
    <path d="M193.50,238.90 L195.23,238.23" stroke="#c498a2" stroke-width="17" stroke-linecap="round" fill="none"/>
    <path d="M195.23,238.23 L196.96,237.52" stroke="#c599a1" stroke-width="17" stroke-linecap="round" fill="none"/>
    <path d="M196.96,237.52 L198.66,236.78" stroke="#c599a1" stroke-width="17" stroke-linecap="round" fill="none"/>
    <path d="M198.66,236.78 L200.36,236.00" stroke="#c699a1" stroke-width="17" stroke-linecap="round" fill="none"/>
    <path d="M200.36,236.00 L202.03,235.19" stroke="#c79aa0" stroke-width="17" stroke-linecap="round" fill="none"/>
    <path d="M202.03,235.19 L203.70,234.35" stroke="#c79aa0" stroke-width="17" stroke-linecap="round" fill="none"/>
    <path d="M203.70,234.35 L205.34,233.48" stroke="#c89aa0" stroke-width="17" stroke-linecap="round" fill="none"/>
    <path d="M205.34,233.48 L206.97,232.58" stroke="#c89ba0" stroke-width="17" stroke-linecap="round" fill="none"/>
    <path d="M206.97,232.58 L208.58,231.64" stroke="#c99b9f" stroke-width="17" stroke-linecap="round" fill="none"/>
    <path d="M208.58,231.64 L210.17,230.67" stroke="#ca9b9f" stroke-width="17" stroke-linecap="round" fill="none"/>
    <path d="M210.17,230.67 L211.74,229.67" stroke="#ca9c9f" stroke-width="17" stroke-linecap="round" fill="none"/>
    <path d="M211.74,229.67 L213.29,228.64" stroke="#cb9c9e" stroke-width="17" stroke-linecap="round" fill="none"/>
    <path d="M213.29,228.64 L214.82,227.58" stroke="#cc9c9e" stroke-width="17" stroke-linecap="round" fill="none"/>
    <path d="M214.82,227.58 L216.33,226.50" stroke="#cc9d9e" stroke-width="17" stroke-linecap="round" fill="none"/>
    <path d="M216.33,226.50 L217.82,225.38" stroke="#cd9d9d" stroke-width="17" stroke-linecap="round" fill="none"/>
    <path d="M217.82,225.38 L219.29,224.23" stroke="#ce9d9d" stroke-width="17" stroke-linecap="round" fill="none"/>
    <path d="M219.29,224.23 L220.73,223.05" stroke="#ce9d9d" stroke-width="17" stroke-linecap="round" fill="none"/>
    <path d="M220.73,223.05 L222.15,221.85" stroke="#cf9e9d" stroke-width="17" stroke-linecap="round" fill="none"/>
    <path d="M222.15,221.85 L223.55,220.62" stroke="#d09e9c" stroke-width="17" stroke-linecap="round" fill="none"/>
    <path d="M223.55,220.62 L224.92,219.36" stroke="#d09e9c" stroke-width="17" stroke-linecap="round" fill="none"/>
    <path d="M224.92,219.36 L226.27,218.07" stroke="#d19f9c" stroke-width="17" stroke-linecap="round" fill="none"/>
    <path d="M226.27,218.07 L227.59,216.76" stroke="#d29f9b" stroke-width="17" stroke-linecap="round" fill="none"/>
    <path d="M227.59,216.76 L228.88,215.42" stroke="#d29f9b" stroke-width="17" stroke-linecap="round" fill="none"/>
    <path d="M228.88,215.42 L230.15,214.06" stroke="#d3a09b" stroke-width="17" stroke-linecap="round" fill="none"/>
    <path d="M230.15,214.06 L231.40,212.67" stroke="#d4a09a" stroke-width="17" stroke-linecap="round" fill="none"/>
    <path d="M231.40,212.67 L232.61,211.26" stroke="#d4a09a" stroke-width="17" stroke-linecap="round" fill="none"/>
    <path d="M232.61,211.26 L233.80,209.83" stroke="#d5a19a" stroke-width="17" stroke-linecap="round" fill="none"/>
    <path d="M233.80,209.83 L234.96,208.37" stroke="#d5a19a" stroke-width="17" stroke-linecap="round" fill="none"/>
    <path d="M234.96,208.37 L236.08,206.89" stroke="#d6a199" stroke-width="17" stroke-linecap="round" fill="none"/>
    <path d="M236.08,206.89 L237.19,205.38" stroke="#d7a299" stroke-width="17" stroke-linecap="round" fill="none"/>
    <path d="M237.19,205.38 L238.26,203.86" stroke="#d7a299" stroke-width="17" stroke-linecap="round" fill="none"/>
    <path d="M238.26,203.86 L239.30,202.32" stroke="#d8a298" stroke-width="17" stroke-linecap="round" fill="none"/>
    <path d="M239.30,202.32 L240.31,200.75" stroke="#d9a298" stroke-width="17" stroke-linecap="round" fill="none"/>
    <path d="M240.31,200.75 L241.29,199.17" stroke="#d9a398" stroke-width="17" stroke-linecap="round" fill="none"/>
    <path d="M241.29,199.17 L242.23,197.57" stroke="#daa397" stroke-width="17" stroke-linecap="round" fill="none"/>
    <path d="M242.23,197.57 L243.15,195.95" stroke="#dba397" stroke-width="17" stroke-linecap="round" fill="none"/>
    <path d="M243.15,195.95 L244.04,194.31" stroke="#dba497" stroke-width="17" stroke-linecap="round" fill="none"/>
    <path d="M244.04,194.31 L244.89,192.65" stroke="#dca497" stroke-width="17" stroke-linecap="round" fill="none"/>
    <path d="M244.89,192.65 L245.71,190.98" stroke="#dda496" stroke-width="17" stroke-linecap="round" fill="none"/>
    <path d="M245.71,190.98 L246.49,189.29" stroke="#dda596" stroke-width="17" stroke-linecap="round" fill="none"/>
    <path d="M246.49,189.29 L247.25,187.59" stroke="#dea596" stroke-width="17" stroke-linecap="round" fill="none"/>
    <path d="M247.25,187.59 L247.97,185.87" stroke="#dfa595" stroke-width="17" stroke-linecap="round" fill="none"/>
    <path d="M247.97,185.87 L248.65,184.14" stroke="#dfa695" stroke-width="17" stroke-linecap="round" fill="none"/>
    <path d="M248.65,184.14 L249.31,182.40" stroke="#e0a695" stroke-width="17" stroke-linecap="round" fill="none"/>
    <path d="M249.31,182.40 L249.92,180.64" stroke="#e1a694" stroke-width="17" stroke-linecap="round" fill="none"/>
    <path d="M249.92,180.64 L250.51,178.87" stroke="#e1a694" stroke-width="17" stroke-linecap="round" fill="none"/>
    <path d="M250.51,178.87 L251.06,177.09" stroke="#e2a794" stroke-width="17" stroke-linecap="round" fill="none"/>
    <path d="M251.06,177.09 L251.57,175.30" stroke="#e2a794" stroke-width="17" stroke-linecap="round" fill="none"/>
    <path d="M251.57,175.30 L252.05,173.50" stroke="#e3a793" stroke-width="17" stroke-linecap="round" fill="none"/>
    <path d="M252.05,173.50 L252.49,171.69" stroke="#e4a893" stroke-width="17" stroke-linecap="round" fill="none"/>
    <path d="M252.49,171.69 L252.90,169.88" stroke="#e4a893" stroke-width="17" stroke-linecap="round" fill="none"/>
    <path d="M252.90,169.88 L253.27,168.05" stroke="#e5a892" stroke-width="17" stroke-linecap="round" fill="none"/>
    <path d="M253.27,168.05 L253.61,166.22" stroke="#e6a992" stroke-width="17" stroke-linecap="round" fill="none"/>
    <path d="M253.61,166.22 L253.90,164.38" stroke="#e6a992" stroke-width="17" stroke-linecap="round" fill="none"/>
    <path d="M253.90,164.38 L254.17,162.54" stroke="#e7a991" stroke-width="17" stroke-linecap="round" fill="none"/>
    <path d="M254.17,162.54 L254.40,160.69" stroke="#e8aa91" stroke-width="17" stroke-linecap="round" fill="none"/>
    <path d="M254.40,160.69 L254.59,158.84" stroke="#e8aa91" stroke-width="17" stroke-linecap="round" fill="none"/>
    <path d="M254.59,158.84 L254.74,156.98" stroke="#e9aa91" stroke-width="17" stroke-linecap="round" fill="none"/>
    <path d="M254.74,156.98 L254.86,155.12" stroke="#eaab90" stroke-width="17" stroke-linecap="round" fill="none"/>
    <path d="M254.86,155.12 L254.94,153.26" stroke="#eaab90" stroke-width="17" stroke-linecap="round" fill="none"/>
    <path d="M254.94,153.26 L254.99,151.40" stroke="#ebab90" stroke-width="17" stroke-linecap="round" fill="none"/>
    <path d="M254.99,151.40 L255.00,149.54" stroke="#ecab8f" stroke-width="17" stroke-linecap="round" fill="none"/>
    <path d="M255.00,149.54 L254.97,147.68" stroke="#ecac8f" stroke-width="17" stroke-linecap="round" fill="none"/>
    <path d="M254.97,147.68 L254.91,145.82" stroke="#edac8f" stroke-width="17" stroke-linecap="round" fill="none"/>
    <path d="M254.91,145.82 L254.81,143.96" stroke="#eeac8e" stroke-width="17" stroke-linecap="round" fill="none"/>
    <path d="M254.81,143.96 L254.67,142.10" stroke="#eead8e" stroke-width="17" stroke-linecap="round" fill="none"/>
    <path d="M254.67,142.10 L254.50,140.25" stroke="#efad8e" stroke-width="17" stroke-linecap="round" fill="none"/>
    <path d="M254.50,140.25 L254.29,138.40" stroke="#efad8e" stroke-width="17" stroke-linecap="round" fill="none"/>
    <path d="M254.29,138.40 L254.04,136.55" stroke="#f0ae8d" stroke-width="17" stroke-linecap="round" fill="none"/>
    <path d="M254.04,136.55 L253.76,134.71" stroke="#f1ae8d" stroke-width="17" stroke-linecap="round" fill="none"/>
    <path d="M253.76,134.71 L253.44,132.88" stroke="#f1ae8d" stroke-width="17" stroke-linecap="round" fill="none"/>
    <path d="M253.44,132.88 L253.09,131.05" stroke="#f2af8c" stroke-width="17" stroke-linecap="round" fill="none"/>
    <path d="M253.09,131.05 L252.70,129.23" stroke="#f3af8c" stroke-width="17" stroke-linecap="round" fill="none"/>
    <path d="M252.70,129.23 L252.28,127.41" stroke="#f3af8c" stroke-width="17" stroke-linecap="round" fill="none"/>
    <path d="M252.28,127.41 L251.82,125.61" stroke="#f4b08b" stroke-width="17" stroke-linecap="round" fill="none"/>
    <path d="M251.82,125.61 L251.32,123.81" stroke="#f5b08b" stroke-width="17" stroke-linecap="round" fill="none"/>
  </g>
  <g transform="translate(313.50,177.94) scale(1.1)" fill="#F3F1EC">
    <path transform="translate(0.00,0)" d="M27.50,0.91 Q21.00,0.91 15.84,-1.44 Q10.70,-3.80 7.70,-7.84 Q4.70,-11.91 4.50,-16.91 L16.30,-16.91 Q16.59,-13.41 19.64,-11.05 Q22.70,-8.70 27.30,-8.70 Q32.09,-8.70 34.75,-10.55 Q37.41,-12.41 37.41,-15.30 Q37.41,-18.41 34.45,-19.91 Q31.50,-21.41 25.09,-23.20 Q18.91,-24.91 15.00,-26.50 Q11.09,-28.09 8.25,-31.39 Q5.41,-34.70 5.41,-40.09 Q5.41,-44.50 8.00,-48.14 Q10.59,-51.80 15.44,-53.89 Q20.30,-56.00 26.59,-56.00 Q36.00,-56.00 41.75,-51.25 Q47.50,-46.50 47.91,-38.30 L36.50,-38.30 Q36.20,-42.00 33.50,-44.20 Q30.80,-46.41 26.20,-46.41 Q21.70,-46.41 19.30,-44.70 Q16.91,-43.00 16.91,-40.20 Q16.91,-38.00 18.50,-36.50 Q20.09,-35.00 22.39,-34.14 Q24.70,-33.30 29.20,-32.00 Q35.20,-30.41 39.05,-28.75 Q42.91,-27.09 45.70,-23.89 Q48.50,-20.70 48.59,-15.41 Q48.59,-10.70 46.00,-7.00 Q43.41,-3.30 38.66,-1.19 Q33.91,0.91 27.50,0.91 Z"/>
    <path transform="translate(56.40,0)" d="M18.91,-47.00 Q21.80,-50.80 26.80,-53.39 Q31.80,-56.00 38.09,-56.00 Q45.30,-56.00 51.25,-52.45 Q57.20,-48.91 60.59,-42.50 Q64.00,-36.09 64.00,-27.80 Q64.00,-19.50 60.59,-12.95 Q57.20,-6.41 51.25,-2.75 Q45.30,0.91 38.09,0.91 Q31.80,0.91 26.89,-1.64 Q22.00,-4.20 18.91,-8.00 L18.91,26.20 L7.50,26.20 L7.50,-55.09 L18.91,-55.09 L18.91,-47.00 Z M52.41,-27.80 Q52.41,-33.50 50.05,-37.64 Q47.70,-41.80 43.84,-43.94 Q40.00,-46.09 35.59,-46.09 Q31.30,-46.09 27.44,-43.89 Q23.59,-41.70 21.25,-37.50 Q18.91,-33.30 18.91,-27.59 Q18.91,-21.91 21.25,-17.66 Q23.59,-13.41 27.44,-11.20 Q31.30,-9.00 35.59,-9.00 Q40.00,-9.00 43.84,-11.25 Q47.70,-13.50 50.05,-17.80 Q52.41,-22.09 52.41,-27.80 Z"/>
    <path transform="translate(127.20,0)" d="M3.70,-27.80 Q3.70,-36.09 7.14,-42.50 Q10.59,-48.91 16.55,-52.45 Q22.50,-56.00 29.70,-56.00 Q36.20,-56.00 41.05,-53.45 Q45.91,-50.91 48.80,-47.09 L48.80,-55.09 L60.30,-55.09 L60.30,-0.00 L48.80,-0.00 L48.80,-8.20 Q45.91,-4.30 40.91,-1.69 Q35.91,0.91 29.50,0.91 Q22.41,0.91 16.50,-2.75 Q10.59,-6.41 7.14,-12.95 Q3.70,-19.50 3.70,-27.80 Z M48.80,-27.59 Q48.80,-33.30 46.44,-37.50 Q44.09,-41.70 40.30,-43.89 Q36.50,-46.09 32.09,-46.09 Q27.70,-46.09 23.89,-43.94 Q20.09,-41.80 17.75,-37.64 Q15.41,-33.50 15.41,-27.80 Q15.41,-22.09 17.75,-17.80 Q20.09,-13.50 23.94,-11.25 Q27.80,-9.00 32.09,-9.00 Q36.50,-9.00 40.30,-11.20 Q44.09,-13.41 46.44,-17.66 Q48.80,-21.91 48.80,-27.59 Z"/>
    <path transform="translate(198.00,0)" d="M17.59,-9.30 L42.59,-9.30 L42.59,-0.00 L4.41,-0.00 L4.41,-9.30 L29.50,-45.80 L4.41,-45.80 L4.41,-55.09 L42.59,-55.09 L42.59,-45.80 L17.59,-9.30 Z"/>
    <path transform="translate(248.10,0)" d="M13.30,-62.41 Q10.20,-62.41 8.09,-64.50 Q6.00,-66.59 6.00,-69.70 Q6.00,-72.80 8.09,-74.89 Q10.20,-77.00 13.30,-77.00 Q16.30,-77.00 18.39,-74.89 Q20.50,-72.80 20.50,-69.70 Q20.50,-66.59 18.39,-64.50 Q16.30,-62.41 13.30,-62.41 Z M18.91,-55.09 L18.91,-0.00 L7.50,-0.00 L7.50,-55.09 L18.91,-55.09 Z"/>
    <path transform="translate(277.50,0)" d="M31.41,0.91 Q23.59,0.91 17.30,-2.64 Q11.00,-6.20 7.39,-12.64 Q3.80,-19.09 3.80,-27.59 Q3.80,-36.00 7.50,-42.50 Q11.20,-49.00 17.59,-52.50 Q24.00,-56.00 31.91,-56.00 Q39.80,-56.00 46.19,-52.50 Q52.59,-49.00 56.30,-42.50 Q60.00,-36.00 60.00,-27.59 Q60.00,-19.20 56.20,-12.70 Q52.41,-6.20 45.84,-2.64 Q39.30,0.91 31.41,0.91 Z M31.41,-9.00 Q35.80,-9.00 39.64,-11.09 Q43.50,-13.20 45.89,-17.39 Q48.30,-21.59 48.30,-27.59 Q48.30,-33.59 46.00,-37.75 Q43.70,-41.91 39.89,-44.00 Q36.09,-46.09 31.70,-46.09 Q27.30,-46.09 23.55,-44.00 Q19.80,-41.91 17.59,-37.75 Q15.41,-33.59 15.41,-27.59 Q15.41,-18.70 19.95,-13.84 Q24.50,-9.00 31.41,-9.00 Z"/>
    <path transform="translate(373.30,0)" d="M27.50,0.91 Q21.00,0.91 15.84,-1.44 Q10.70,-3.80 7.70,-7.84 Q4.70,-11.91 4.50,-16.91 L16.30,-16.91 Q16.59,-13.41 19.64,-11.05 Q22.70,-8.70 27.30,-8.70 Q32.09,-8.70 34.75,-10.55 Q37.41,-12.41 37.41,-15.30 Q37.41,-18.41 34.45,-19.91 Q31.50,-21.41 25.09,-23.20 Q18.91,-24.91 15.00,-26.50 Q11.09,-28.09 8.25,-31.39 Q5.41,-34.70 5.41,-40.09 Q5.41,-44.50 8.00,-48.14 Q10.59,-51.80 15.44,-53.89 Q20.30,-56.00 26.59,-56.00 Q36.00,-56.00 41.75,-51.25 Q47.50,-46.50 47.91,-38.30 L36.50,-38.30 Q36.20,-42.00 33.50,-44.20 Q30.80,-46.41 26.20,-46.41 Q21.70,-46.41 19.30,-44.70 Q16.91,-43.00 16.91,-40.20 Q16.91,-38.00 18.50,-36.50 Q20.09,-35.00 22.39,-34.14 Q24.70,-33.30 29.20,-32.00 Q35.20,-30.41 39.05,-28.75 Q42.91,-27.09 45.70,-23.89 Q48.50,-20.70 48.59,-15.41 Q48.59,-10.70 46.00,-7.00 Q43.41,-3.30 38.66,-1.19 Q33.91,0.91 27.50,0.91 Z"/>
    <path transform="translate(429.70,0)" d="M13.30,-62.41 Q10.20,-62.41 8.09,-64.50 Q6.00,-66.59 6.00,-69.70 Q6.00,-72.80 8.09,-74.89 Q10.20,-77.00 13.30,-77.00 Q16.30,-77.00 18.39,-74.89 Q20.50,-72.80 20.50,-69.70 Q20.50,-66.59 18.39,-64.50 Q16.30,-62.41 13.30,-62.41 Z M18.91,-55.09 L18.91,-0.00 L7.50,-0.00 L7.50,-55.09 L18.91,-55.09 Z"/>
    <path transform="translate(459.10,0)" d="M3.70,-27.59 Q3.70,-36.09 7.14,-42.55 Q10.59,-49.00 16.69,-52.50 Q22.80,-56.00 30.70,-56.00 Q40.70,-56.00 47.25,-51.25 Q53.80,-46.50 56.09,-37.70 L43.80,-37.70 Q42.30,-41.80 39.00,-44.09 Q35.70,-46.41 30.70,-46.41 Q23.70,-46.41 19.55,-41.45 Q15.41,-36.50 15.41,-27.59 Q15.41,-18.70 19.55,-13.70 Q23.70,-8.70 30.70,-8.70 Q40.59,-8.70 43.80,-17.41 L56.09,-17.41 Q53.70,-9.00 47.09,-4.05 Q40.50,0.91 30.70,0.91 Q22.80,0.91 16.69,-2.64 Q10.59,-6.20 7.14,-12.64 Q3.70,-19.09 3.70,-27.59 Z"/>
    <path transform="translate(522.10,0)" d="M57.41,-55.09 L57.41,-0.00 L46.00,-0.00 L46.00,-6.50 Q43.30,-3.09 38.94,-1.14 Q34.59,0.80 29.70,0.80 Q23.20,0.80 18.05,-1.89 Q12.91,-4.59 9.95,-9.89 Q7.00,-15.20 7.00,-22.70 L7.00,-55.09 L18.30,-55.09 L18.30,-24.41 Q18.30,-17.00 22.00,-13.05 Q25.70,-9.09 32.09,-9.09 Q38.50,-9.09 42.25,-13.05 Q46.00,-17.00 46.00,-24.41 L46.00,-55.09 L57.41,-55.09 Z"/>
    <path transform="translate(590.00,0)" d="M18.91,-47.09 Q21.41,-51.30 25.55,-53.64 Q29.70,-56.00 35.41,-56.00 L35.41,-44.20 L32.50,-44.20 Q25.80,-44.20 22.34,-40.80 Q18.91,-37.41 18.91,-29.00 L18.91,-0.00 L7.50,-0.00 L7.50,-55.09 L18.91,-55.09 L18.91,-47.09 Z"/>
    <path transform="translate(631.40,0)" d="M31.41,0.91 Q23.59,0.91 17.30,-2.64 Q11.00,-6.20 7.39,-12.64 Q3.80,-19.09 3.80,-27.59 Q3.80,-36.00 7.50,-42.50 Q11.20,-49.00 17.59,-52.50 Q24.00,-56.00 31.91,-56.00 Q39.80,-56.00 46.19,-52.50 Q52.59,-49.00 56.30,-42.50 Q60.00,-36.00 60.00,-27.59 Q60.00,-19.20 56.20,-12.70 Q52.41,-6.20 45.84,-2.64 Q39.30,0.91 31.41,0.91 Z M31.41,-9.00 Q35.80,-9.00 39.64,-11.09 Q43.50,-13.20 45.89,-17.39 Q48.30,-21.59 48.30,-27.59 Q48.30,-33.59 46.00,-37.75 Q43.70,-41.91 39.89,-44.00 Q36.09,-46.09 31.70,-46.09 Q27.30,-46.09 23.55,-44.00 Q19.80,-41.91 17.59,-37.75 Q15.41,-33.59 15.41,-27.59 Q15.41,-18.70 19.95,-13.84 Q24.50,-9.00 31.41,-9.00 Z"/>
    </g>
</svg>
